<svg xmlns="http://www.w3.org/2000/svg" viewBox="0 0 80 80" width="80" height="80">
  <defs>
    <radialGradient id="bgbio2" cx="50%" cy="45%" r="60%">
      <stop offset="0%" stop-color="#4caf50" stop-opacity="0.12"/>
      <stop offset="100%" stop-color="#1b2e1c" stop-opacity="1"/>
    </radialGradient>
    <radialGradient id="glowbio2" cx="50%" cy="45%" r="40%">
      <stop offset="0%" stop-color="#81c784" stop-opacity="0.1"/>
      <stop offset="100%" stop-color="#81c784" stop-opacity="0"/>
    </radialGradient>
    <filter id="blurbio2">
      <feGaussianBlur stdDeviation="2.5"/>
    </filter>
  </defs>
  <rect width="80" height="80" rx="6" fill="url(#bgbio2)"/>
  <rect width="80" height="80" rx="6" fill="url(#glowbio2)"/>
  <rect width="80" height="80" rx="6" fill="none" stroke="#4caf50" stroke-width="0.8" opacity="0.33"/>
  
    <line x1="4" y1="4" x2="12" y2="4" stroke="#4caf50" stroke-width="1.5" opacity="0.66"/>
    <line x1="4" y1="4" x2="4" y2="12" stroke="#4caf50" stroke-width="1.5" opacity="0.66"/>
    <line x1="76" y1="4" x2="68" y2="4" stroke="#4caf50" stroke-width="1.5" opacity="0.66"/>
    <line x1="76" y1="4" x2="76" y2="12" stroke="#4caf50" stroke-width="1.5" opacity="0.66"/>
    <line x1="4" y1="76" x2="12" y2="76" stroke="#4caf50" stroke-width="1.5" opacity="0.66"/>
    <line x1="4" y1="76" x2="4" y2="68" stroke="#4caf50" stroke-width="1.5" opacity="0.66"/>
    <line x1="76" y1="76" x2="68" y2="76" stroke="#4caf50" stroke-width="1.5" opacity="0.66"/>
    <line x1="76" y1="76" x2="76" y2="68" stroke="#4caf50" stroke-width="1.5" opacity="0.66"/>
  
  
    <circle cx="40" cy="38" r="14" fill="none" stroke="#4caf50" stroke-width="2.5" opacity="0.7" stroke-dasharray="22 10"/>
    <circle cx="40" cy="38" r="8" fill="#4caf50" opacity="0.2"/>
    <circle cx="40" cy="38" r="4" fill="#81c784" opacity="0.9"/>
    <path d="M40 24 L42 20 L44 24Z" fill="#81c784" opacity="0.9"/>
    <path d="M40 52 L38 56 L36 52Z" fill="#4caf50" opacity="0.7"/>
  
  <circle cx="32" cy="71" r="1.6" fill="#4caf50" opacity="0.5"/><circle cx="40" cy="71" r="1.6" fill="#4caf50" opacity="0.5"/><circle cx="48" cy="71" r="2.2" fill="#81c784" opacity="1"/>
</svg>