<svg xmlns="http://www.w3.org/2000/svg" viewBox="0 0 80 80" width="80" height="80">
  <defs>
    <radialGradient id="bgbio6" cx="50%" cy="45%" r="60%">
      <stop offset="0%" stop-color="#4caf50" stop-opacity="0.12"/>
      <stop offset="100%" stop-color="#1b2e1c" stop-opacity="1"/>
    </radialGradient>
    <radialGradient id="glowbio6" cx="50%" cy="45%" r="40%">
      <stop offset="0%" stop-color="#81c784" stop-opacity="0.18"/>
      <stop offset="100%" stop-color="#81c784" stop-opacity="0"/>
    </radialGradient>
    <filter id="blurbio6">
      <feGaussianBlur stdDeviation="2.5"/>
    </filter>
  </defs>
  <rect width="80" height="80" rx="6" fill="url(#bgbio6)"/>
  <rect width="80" height="80" rx="6" fill="url(#glowbio6)"/>
  <rect width="80" height="80" rx="6" fill="none" stroke="#4caf50" stroke-width="0.8" opacity="0.49"/>
  
    <line x1="4" y1="4" x2="12" y2="4" stroke="#4caf50" stroke-width="1.5" opacity="0.98"/>
    <line x1="4" y1="4" x2="4" y2="12" stroke="#4caf50" stroke-width="1.5" opacity="0.98"/>
    <line x1="76" y1="4" x2="68" y2="4" stroke="#4caf50" stroke-width="1.5" opacity="0.98"/>
    <line x1="76" y1="4" x2="76" y2="12" stroke="#4caf50" stroke-width="1.5" opacity="0.98"/>
    <line x1="4" y1="76" x2="12" y2="76" stroke="#4caf50" stroke-width="1.5" opacity="0.98"/>
    <line x1="4" y1="76" x2="4" y2="68" stroke="#4caf50" stroke-width="1.5" opacity="0.98"/>
    <line x1="76" y1="76" x2="68" y2="76" stroke="#4caf50" stroke-width="1.5" opacity="0.98"/>
    <line x1="76" y1="76" x2="76" y2="68" stroke="#4caf50" stroke-width="1.5" opacity="0.98"/>
  
  
    <ellipse cx="40" cy="34" rx="14" ry="13" fill="#4caf50" opacity="0.75"/>
    <rect x="33" y="44" width="14" height="8" rx="2" fill="#4caf50" opacity="0.6"/>
    <circle cx="34" cy="32" r="4" fill="black" opacity="0.7"/>
    <circle cx="46" cy="32" r="4" fill="black" opacity="0.7"/>
    <line x1="37" y1="48" x2="37" y2="52" stroke="black" stroke-width="2" opacity="0.5"/>
    <line x1="40" y1="46" x2="40" y2="52" stroke="black" stroke-width="2" opacity="0.5"/>
    <line x1="43" y1="48" x2="43" y2="52" stroke="black" stroke-width="2" opacity="0.5"/>
    <path d="M30 40 Q40 44 50 40" fill="none" stroke="#81c784" stroke-width="1" opacity="0.4"/>
  
  <circle cx="16" cy="71" r="1.6" fill="#4caf50" opacity="0.5"/><circle cx="24" cy="71" r="1.6" fill="#4caf50" opacity="0.5"/><circle cx="32" cy="71" r="1.6" fill="#4caf50" opacity="0.5"/><circle cx="40" cy="71" r="1.6" fill="#4caf50" opacity="0.5"/><circle cx="48" cy="71" r="1.6" fill="#4caf50" opacity="0.5"/><circle cx="56" cy="71" r="1.6" fill="#4caf50" opacity="0.5"/><circle cx="64" cy="71" r="2.2" fill="#81c784" opacity="1"/>
</svg>