<svg xmlns="http://www.w3.org/2000/svg" viewBox="0 0 80 80" width="80" height="80">
  <defs>
    <radialGradient id="bgbio3" cx="50%" cy="45%" r="60%">
      <stop offset="0%" stop-color="#4caf50" stop-opacity="0.12"/>
      <stop offset="100%" stop-color="#1b2e1c" stop-opacity="1"/>
    </radialGradient>
    <radialGradient id="glowbio3" cx="50%" cy="45%" r="40%">
      <stop offset="0%" stop-color="#81c784" stop-opacity="0.12"/>
      <stop offset="100%" stop-color="#81c784" stop-opacity="0"/>
    </radialGradient>
    <filter id="blurbio3">
      <feGaussianBlur stdDeviation="2.5"/>
    </filter>
  </defs>
  <rect width="80" height="80" rx="6" fill="url(#bgbio3)"/>
  <rect width="80" height="80" rx="6" fill="url(#glowbio3)"/>
  <rect width="80" height="80" rx="6" fill="none" stroke="#4caf50" stroke-width="0.8" opacity="0.37"/>
  
    <line x1="4" y1="4" x2="12" y2="4" stroke="#4caf50" stroke-width="1.5" opacity="0.74"/>
    <line x1="4" y1="4" x2="4" y2="12" stroke="#4caf50" stroke-width="1.5" opacity="0.74"/>
    <line x1="76" y1="4" x2="68" y2="4" stroke="#4caf50" stroke-width="1.5" opacity="0.74"/>
    <line x1="76" y1="4" x2="76" y2="12" stroke="#4caf50" stroke-width="1.5" opacity="0.74"/>
    <line x1="4" y1="76" x2="12" y2="76" stroke="#4caf50" stroke-width="1.5" opacity="0.74"/>
    <line x1="4" y1="76" x2="4" y2="68" stroke="#4caf50" stroke-width="1.5" opacity="0.74"/>
    <line x1="76" y1="76" x2="68" y2="76" stroke="#4caf50" stroke-width="1.5" opacity="0.74"/>
    <line x1="76" y1="76" x2="76" y2="68" stroke="#4caf50" stroke-width="1.5" opacity="0.74"/>
  
  
    <polygon points="40,22 52,29 52,43 40,50 28,43 28,29" fill="#4caf50" opacity="0.18" stroke="#4caf50" stroke-width="1.5"/>
    <polygon points="40,26 49,31 49,41 40,46 31,41 31,31" fill="#4caf50" opacity="0.1"/>
    <path d="M43 29 L37 38 L42 38 L37 47 L45 36 L40 36 L43 29Z" fill="#81c784" opacity="0.95"/>
  
  <circle cx="28" cy="71" r="1.6" fill="#4caf50" opacity="0.5"/><circle cx="36" cy="71" r="1.6" fill="#4caf50" opacity="0.5"/><circle cx="44" cy="71" r="1.6" fill="#4caf50" opacity="0.5"/><circle cx="52" cy="71" r="2.2" fill="#81c784" opacity="1"/>
</svg>