<svg xmlns="http://www.w3.org/2000/svg" viewBox="0 0 80 80" width="80" height="80">
  <defs>
    <radialGradient id="bgbio5" cx="50%" cy="45%" r="60%">
      <stop offset="0%" stop-color="#4caf50" stop-opacity="0.12"/>
      <stop offset="100%" stop-color="#1b2e1c" stop-opacity="1"/>
    </radialGradient>
    <radialGradient id="glowbio5" cx="50%" cy="45%" r="40%">
      <stop offset="0%" stop-color="#81c784" stop-opacity="0.16"/>
      <stop offset="100%" stop-color="#81c784" stop-opacity="0"/>
    </radialGradient>
    <filter id="blurbio5">
      <feGaussianBlur stdDeviation="2.5"/>
    </filter>
  </defs>
  <rect width="80" height="80" rx="6" fill="url(#bgbio5)"/>
  <rect width="80" height="80" rx="6" fill="url(#glowbio5)"/>
  <rect width="80" height="80" rx="6" fill="none" stroke="#4caf50" stroke-width="0.8" opacity="0.45"/>
  
    <line x1="4" y1="4" x2="12" y2="4" stroke="#4caf50" stroke-width="1.5" opacity="0.9"/>
    <line x1="4" y1="4" x2="4" y2="12" stroke="#4caf50" stroke-width="1.5" opacity="0.9"/>
    <line x1="76" y1="4" x2="68" y2="4" stroke="#4caf50" stroke-width="1.5" opacity="0.9"/>
    <line x1="76" y1="4" x2="76" y2="12" stroke="#4caf50" stroke-width="1.5" opacity="0.9"/>
    <line x1="4" y1="76" x2="12" y2="76" stroke="#4caf50" stroke-width="1.5" opacity="0.9"/>
    <line x1="4" y1="76" x2="4" y2="68" stroke="#4caf50" stroke-width="1.5" opacity="0.9"/>
    <line x1="76" y1="76" x2="68" y2="76" stroke="#4caf50" stroke-width="1.5" opacity="0.9"/>
    <line x1="76" y1="76" x2="76" y2="68" stroke="#4caf50" stroke-width="1.5" opacity="0.9"/>
  
  
    <rect x="30" y="32" width="20" height="16" rx="4" fill="#4caf50" opacity="0.8"/>
    <rect x="30" y="26" width="5" height="10" rx="2" fill="#4caf50" opacity="0.7"/>
    <rect x="36" y="24" width="5" height="10" rx="2" fill="#4caf50" opacity="0.75"/>
    <rect x="42" y="25" width="5" height="10" rx="2" fill="#4caf50" opacity="0.7"/>
    <rect x="47" y="27" width="4" height="9" rx="2" fill="#4caf50" opacity="0.65"/>
    <rect x="26" y="33" width="6" height="8" rx="2" fill="#81c784" opacity="0.8"/>
    <rect x="30" y="32" width="20" height="6" rx="2" fill="#81c784" opacity="0.25"/>
  
  <circle cx="20" cy="71" r="1.6" fill="#4caf50" opacity="0.5"/><circle cx="28" cy="71" r="1.6" fill="#4caf50" opacity="0.5"/><circle cx="36" cy="71" r="1.6" fill="#4caf50" opacity="0.5"/><circle cx="44" cy="71" r="1.6" fill="#4caf50" opacity="0.5"/><circle cx="52" cy="71" r="1.6" fill="#4caf50" opacity="0.5"/><circle cx="60" cy="71" r="2.2" fill="#81c784" opacity="1"/>
</svg>