<svg xmlns="http://www.w3.org/2000/svg" viewBox="0 0 80 80" width="80" height="80">
  <defs>
    <radialGradient id="bgbio4" cx="50%" cy="45%" r="60%">
      <stop offset="0%" stop-color="#4caf50" stop-opacity="0.12"/>
      <stop offset="100%" stop-color="#1b2e1c" stop-opacity="1"/>
    </radialGradient>
    <radialGradient id="glowbio4" cx="50%" cy="45%" r="40%">
      <stop offset="0%" stop-color="#81c784" stop-opacity="0.14"/>
      <stop offset="100%" stop-color="#81c784" stop-opacity="0"/>
    </radialGradient>
    <filter id="blurbio4">
      <feGaussianBlur stdDeviation="2.5"/>
    </filter>
  </defs>
  <rect width="80" height="80" rx="6" fill="url(#bgbio4)"/>
  <rect width="80" height="80" rx="6" fill="url(#glowbio4)"/>
  <rect width="80" height="80" rx="6" fill="none" stroke="#4caf50" stroke-width="0.8" opacity="0.41000000000000003"/>
  
    <line x1="4" y1="4" x2="12" y2="4" stroke="#4caf50" stroke-width="1.5" opacity="0.8200000000000001"/>
    <line x1="4" y1="4" x2="4" y2="12" stroke="#4caf50" stroke-width="1.5" opacity="0.8200000000000001"/>
    <line x1="76" y1="4" x2="68" y2="4" stroke="#4caf50" stroke-width="1.5" opacity="0.8200000000000001"/>
    <line x1="76" y1="4" x2="76" y2="12" stroke="#4caf50" stroke-width="1.5" opacity="0.8200000000000001"/>
    <line x1="4" y1="76" x2="12" y2="76" stroke="#4caf50" stroke-width="1.5" opacity="0.8200000000000001"/>
    <line x1="4" y1="76" x2="4" y2="68" stroke="#4caf50" stroke-width="1.5" opacity="0.8200000000000001"/>
    <line x1="76" y1="76" x2="68" y2="76" stroke="#4caf50" stroke-width="1.5" opacity="0.8200000000000001"/>
    <line x1="76" y1="76" x2="76" y2="68" stroke="#4caf50" stroke-width="1.5" opacity="0.8200000000000001"/>
  
  
    <path d="M34 20 Q46 26 34 32 Q22 38 34 44 Q46 50 34 56" fill="none" stroke="#4caf50" stroke-width="2" opacity="0.8"/>
    <path d="M46 20 Q34 26 46 32 Q58 38 46 44 Q34 50 46 56" fill="none" stroke="#81c784" stroke-width="2" opacity="0.8"/>
    <line x1="34" y1="26" x2="46" y2="26" stroke="#4caf50" stroke-width="1.2" opacity="0.6"/>
    <line x1="34" y1="32" x2="46" y2="32" stroke="#81c784" stroke-width="1.2" opacity="0.6"/>
    <line x1="34" y1="38" x2="46" y2="38" stroke="#4caf50" stroke-width="1.2" opacity="0.6"/>
    <line x1="34" y1="44" x2="46" y2="44" stroke="#81c784" stroke-width="1.2" opacity="0.6"/>
    <line x1="34" y1="50" x2="46" y2="50" stroke="#4caf50" stroke-width="1.2" opacity="0.6"/>
  
  <circle cx="24" cy="71" r="1.6" fill="#4caf50" opacity="0.5"/><circle cx="32" cy="71" r="1.6" fill="#4caf50" opacity="0.5"/><circle cx="40" cy="71" r="1.6" fill="#4caf50" opacity="0.5"/><circle cx="48" cy="71" r="1.6" fill="#4caf50" opacity="0.5"/><circle cx="56" cy="71" r="2.2" fill="#81c784" opacity="1"/>
</svg>