<svg xmlns="http://www.w3.org/2000/svg" viewBox="0 0 80 80" width="80" height="80">
  <defs>
    <radialGradient id="bgchr2" cx="50%" cy="45%" r="60%">
      <stop offset="0%" stop-color="#ffeb3b" stop-opacity="0.12"/>
      <stop offset="100%" stop-color="#262200" stop-opacity="1"/>
    </radialGradient>
    <radialGradient id="glowchr2" cx="50%" cy="45%" r="40%">
      <stop offset="0%" stop-color="#fff176" stop-opacity="0.1"/>
      <stop offset="100%" stop-color="#fff176" stop-opacity="0"/>
    </radialGradient>
    <filter id="blurchr2">
      <feGaussianBlur stdDeviation="2.5"/>
    </filter>
  </defs>
  <rect width="80" height="80" rx="6" fill="url(#bgchr2)"/>
  <rect width="80" height="80" rx="6" fill="url(#glowchr2)"/>
  <rect width="80" height="80" rx="6" fill="none" stroke="#ffeb3b" stroke-width="0.8" opacity="0.33"/>
  
    <line x1="4" y1="4" x2="12" y2="4" stroke="#ffeb3b" stroke-width="1.5" opacity="0.66"/>
    <line x1="4" y1="4" x2="4" y2="12" stroke="#ffeb3b" stroke-width="1.5" opacity="0.66"/>
    <line x1="76" y1="4" x2="68" y2="4" stroke="#ffeb3b" stroke-width="1.5" opacity="0.66"/>
    <line x1="76" y1="4" x2="76" y2="12" stroke="#ffeb3b" stroke-width="1.5" opacity="0.66"/>
    <line x1="4" y1="76" x2="12" y2="76" stroke="#ffeb3b" stroke-width="1.5" opacity="0.66"/>
    <line x1="4" y1="76" x2="4" y2="68" stroke="#ffeb3b" stroke-width="1.5" opacity="0.66"/>
    <line x1="76" y1="76" x2="68" y2="76" stroke="#ffeb3b" stroke-width="1.5" opacity="0.66"/>
    <line x1="76" y1="76" x2="76" y2="68" stroke="#ffeb3b" stroke-width="1.5" opacity="0.66"/>
  
  
    <path d="M22 38 Q31 24 40 24 Q49 24 58 38 Q49 52 40 52 Q31 52 22 38Z" fill="#ffeb3b" opacity="0.2" stroke="#ffeb3b" stroke-width="1.5"/>
    <circle cx="40" cy="38" r="7" fill="#ffeb3b" opacity="0.4"/>
    <circle cx="40" cy="38" r="4" fill="#fff176" opacity="0.85"/>
    <circle cx="40" cy="38" r="2" fill="black" opacity="0.7"/>
    <path d="M44 24 L50 18 L56 20 L54 26" stroke="#ffeb3b" stroke-width="1.2" fill="none" opacity="0.5"/>
    <path d="M50 28 L56 20" stroke="#fff176" stroke-width="1" opacity="0.5"/>
  
  <circle cx="32" cy="71" r="1.6" fill="#ffeb3b" opacity="0.5"/><circle cx="40" cy="71" r="1.6" fill="#ffeb3b" opacity="0.5"/><circle cx="48" cy="71" r="2.2" fill="#fff176" opacity="1"/>
</svg>