<svg xmlns="http://www.w3.org/2000/svg" viewBox="0 0 80 80" width="80" height="80">
  <defs>
    <radialGradient id="bgchr1" cx="50%" cy="45%" r="60%">
      <stop offset="0%" stop-color="#ffeb3b" stop-opacity="0.12"/>
      <stop offset="100%" stop-color="#262200" stop-opacity="1"/>
    </radialGradient>
    <radialGradient id="glowchr1" cx="50%" cy="45%" r="40%">
      <stop offset="0%" stop-color="#fff176" stop-opacity="0.08"/>
      <stop offset="100%" stop-color="#fff176" stop-opacity="0"/>
    </radialGradient>
    <filter id="blurchr1">
      <feGaussianBlur stdDeviation="2.5"/>
    </filter>
  </defs>
  <rect width="80" height="80" rx="6" fill="url(#bgchr1)"/>
  <rect width="80" height="80" rx="6" fill="url(#glowchr1)"/>
  <rect width="80" height="80" rx="6" fill="none" stroke="#ffeb3b" stroke-width="0.8" opacity="0.29"/>
  
    <line x1="4" y1="4" x2="12" y2="4" stroke="#ffeb3b" stroke-width="1.5" opacity="0.58"/>
    <line x1="4" y1="4" x2="4" y2="12" stroke="#ffeb3b" stroke-width="1.5" opacity="0.58"/>
    <line x1="76" y1="4" x2="68" y2="4" stroke="#ffeb3b" stroke-width="1.5" opacity="0.58"/>
    <line x1="76" y1="4" x2="76" y2="12" stroke="#ffeb3b" stroke-width="1.5" opacity="0.58"/>
    <line x1="4" y1="76" x2="12" y2="76" stroke="#ffeb3b" stroke-width="1.5" opacity="0.58"/>
    <line x1="4" y1="76" x2="4" y2="68" stroke="#ffeb3b" stroke-width="1.5" opacity="0.58"/>
    <line x1="76" y1="76" x2="68" y2="76" stroke="#ffeb3b" stroke-width="1.5" opacity="0.58"/>
    <line x1="76" y1="76" x2="76" y2="68" stroke="#ffeb3b" stroke-width="1.5" opacity="0.58"/>
  
  
    <circle cx="40" cy="38" r="16" fill="#ffeb3b" opacity="0.15" stroke="#ffeb3b" stroke-width="2"/>
    <circle cx="40" cy="38" r="2" fill="#fff176" opacity="0.9"/>
    <line x1="40" y1="38" x2="40" y2="26" stroke="#fff176" stroke-width="2" stroke-linecap="round"/>
    <line x1="40" y1="38" x2="50" y2="42" stroke="#ffeb3b" stroke-width="1.5" stroke-linecap="round"/>
    <line x1="40" y1="22" x2="40" y2="24" stroke="#ffeb3b" stroke-width="2" opacity="0.5"/>
    <line x1="40" y1="52" x2="40" y2="54" stroke="#ffeb3b" stroke-width="2" opacity="0.5"/>
    <line x1="24" y1="38" x2="26" y2="38" stroke="#ffeb3b" stroke-width="2" opacity="0.5"/>
    <line x1="54" y1="38" x2="56" y2="38" stroke="#ffeb3b" stroke-width="2" opacity="0.5"/>
  
  <circle cx="36" cy="71" r="1.6" fill="#ffeb3b" opacity="0.5"/><circle cx="44" cy="71" r="2.2" fill="#fff176" opacity="1"/>
</svg>