<svg xmlns="http://www.w3.org/2000/svg" viewBox="0 0 80 80" width="80" height="80">
  <defs>
    <radialGradient id="bgchr6" cx="50%" cy="45%" r="60%">
      <stop offset="0%" stop-color="#ffeb3b" stop-opacity="0.12"/>
      <stop offset="100%" stop-color="#262200" stop-opacity="1"/>
    </radialGradient>
    <radialGradient id="glowchr6" cx="50%" cy="45%" r="40%">
      <stop offset="0%" stop-color="#fff176" stop-opacity="0.18"/>
      <stop offset="100%" stop-color="#fff176" stop-opacity="0"/>
    </radialGradient>
    <filter id="blurchr6">
      <feGaussianBlur stdDeviation="2.5"/>
    </filter>
  </defs>
  <rect width="80" height="80" rx="6" fill="url(#bgchr6)"/>
  <rect width="80" height="80" rx="6" fill="url(#glowchr6)"/>
  <rect width="80" height="80" rx="6" fill="none" stroke="#ffeb3b" stroke-width="0.8" opacity="0.49"/>
  
    <line x1="4" y1="4" x2="12" y2="4" stroke="#ffeb3b" stroke-width="1.5" opacity="0.98"/>
    <line x1="4" y1="4" x2="4" y2="12" stroke="#ffeb3b" stroke-width="1.5" opacity="0.98"/>
    <line x1="76" y1="4" x2="68" y2="4" stroke="#ffeb3b" stroke-width="1.5" opacity="0.98"/>
    <line x1="76" y1="4" x2="76" y2="12" stroke="#ffeb3b" stroke-width="1.5" opacity="0.98"/>
    <line x1="4" y1="76" x2="12" y2="76" stroke="#ffeb3b" stroke-width="1.5" opacity="0.98"/>
    <line x1="4" y1="76" x2="4" y2="68" stroke="#ffeb3b" stroke-width="1.5" opacity="0.98"/>
    <line x1="76" y1="76" x2="68" y2="76" stroke="#ffeb3b" stroke-width="1.5" opacity="0.98"/>
    <line x1="76" y1="76" x2="76" y2="68" stroke="#ffeb3b" stroke-width="1.5" opacity="0.98"/>
  
  
    <path d="M40 38 Q40 26 30 26 Q20 26 20 38 Q20 50 30 50 Q36 50 40 42 Q44 50 50 50 Q60 50 60 38 Q60 26 50 26 Q40 26 40 38Z" fill="none" stroke="#ffeb3b" stroke-width="2.5" opacity="0.8"/>
    <path d="M34 38 Q36 32 40 38 Q44 44 46 38" fill="none" stroke="#fff176" stroke-width="1.5" opacity="0.7"/>
    <circle cx="30" cy="38" r="4" fill="#ffeb3b" opacity="0.3"/>
    <circle cx="50" cy="38" r="4" fill="#ffeb3b" opacity="0.3"/>
    <circle cx="40" cy="38" r="2.5" fill="#fff176" opacity="0.9"/>
  
  <circle cx="16" cy="71" r="1.6" fill="#ffeb3b" opacity="0.5"/><circle cx="24" cy="71" r="1.6" fill="#ffeb3b" opacity="0.5"/><circle cx="32" cy="71" r="1.6" fill="#ffeb3b" opacity="0.5"/><circle cx="40" cy="71" r="1.6" fill="#ffeb3b" opacity="0.5"/><circle cx="48" cy="71" r="1.6" fill="#ffeb3b" opacity="0.5"/><circle cx="56" cy="71" r="1.6" fill="#ffeb3b" opacity="0.5"/><circle cx="64" cy="71" r="2.2" fill="#fff176" opacity="1"/>
</svg>