<svg xmlns="http://www.w3.org/2000/svg" viewBox="0 0 80 80" width="80" height="80">
  <defs>
    <radialGradient id="bgchr5" cx="50%" cy="45%" r="60%">
      <stop offset="0%" stop-color="#ffeb3b" stop-opacity="0.12"/>
      <stop offset="100%" stop-color="#262200" stop-opacity="1"/>
    </radialGradient>
    <radialGradient id="glowchr5" cx="50%" cy="45%" r="40%">
      <stop offset="0%" stop-color="#fff176" stop-opacity="0.16"/>
      <stop offset="100%" stop-color="#fff176" stop-opacity="0"/>
    </radialGradient>
    <filter id="blurchr5">
      <feGaussianBlur stdDeviation="2.5"/>
    </filter>
  </defs>
  <rect width="80" height="80" rx="6" fill="url(#bgchr5)"/>
  <rect width="80" height="80" rx="6" fill="url(#glowchr5)"/>
  <rect width="80" height="80" rx="6" fill="none" stroke="#ffeb3b" stroke-width="0.8" opacity="0.45"/>
  
    <line x1="4" y1="4" x2="12" y2="4" stroke="#ffeb3b" stroke-width="1.5" opacity="0.9"/>
    <line x1="4" y1="4" x2="4" y2="12" stroke="#ffeb3b" stroke-width="1.5" opacity="0.9"/>
    <line x1="76" y1="4" x2="68" y2="4" stroke="#ffeb3b" stroke-width="1.5" opacity="0.9"/>
    <line x1="76" y1="4" x2="76" y2="12" stroke="#ffeb3b" stroke-width="1.5" opacity="0.9"/>
    <line x1="4" y1="76" x2="12" y2="76" stroke="#ffeb3b" stroke-width="1.5" opacity="0.9"/>
    <line x1="4" y1="76" x2="4" y2="68" stroke="#ffeb3b" stroke-width="1.5" opacity="0.9"/>
    <line x1="76" y1="76" x2="68" y2="76" stroke="#ffeb3b" stroke-width="1.5" opacity="0.9"/>
    <line x1="76" y1="76" x2="76" y2="68" stroke="#ffeb3b" stroke-width="1.5" opacity="0.9"/>
  
  
    <path d="M18 30 Q26 22 34 30 Q42 38 50 30 Q58 22 62 30" fill="none" stroke="#ffeb3b" stroke-width="2.5" opacity="0.7"/>
    <path d="M18 40 Q26 32 34 40 Q42 48 50 40 Q58 32 62 40" fill="none" stroke="#fff176" stroke-width="2" opacity="0.7"/>
    <path d="M18 50 Q26 42 34 50 Q42 58 50 50 Q58 42 62 50" fill="none" stroke="#ffeb3b" stroke-width="1.5" opacity="0.4"/>
    <circle cx="18" cy="40" r="2" fill="#fff176" opacity="0.7"/>
    <circle cx="62" cy="40" r="2" fill="#fff176" opacity="0.7"/>
  
  <circle cx="20" cy="71" r="1.6" fill="#ffeb3b" opacity="0.5"/><circle cx="28" cy="71" r="1.6" fill="#ffeb3b" opacity="0.5"/><circle cx="36" cy="71" r="1.6" fill="#ffeb3b" opacity="0.5"/><circle cx="44" cy="71" r="1.6" fill="#ffeb3b" opacity="0.5"/><circle cx="52" cy="71" r="1.6" fill="#ffeb3b" opacity="0.5"/><circle cx="60" cy="71" r="2.2" fill="#fff176" opacity="1"/>
</svg>