<svg xmlns="http://www.w3.org/2000/svg" viewBox="0 0 80 80" width="80" height="80">
  <defs>
    <radialGradient id="bgent2" cx="50%" cy="45%" r="60%">
      <stop offset="0%" stop-color="#f44336" stop-opacity="0.12"/>
      <stop offset="100%" stop-color="#261010" stop-opacity="1"/>
    </radialGradient>
    <radialGradient id="glowent2" cx="50%" cy="45%" r="40%">
      <stop offset="0%" stop-color="#ef9a9a" stop-opacity="0.1"/>
      <stop offset="100%" stop-color="#ef9a9a" stop-opacity="0"/>
    </radialGradient>
    <filter id="blurent2">
      <feGaussianBlur stdDeviation="2.5"/>
    </filter>
  </defs>
  <rect width="80" height="80" rx="6" fill="url(#bgent2)"/>
  <rect width="80" height="80" rx="6" fill="url(#glowent2)"/>
  <rect width="80" height="80" rx="6" fill="none" stroke="#f44336" stroke-width="0.8" opacity="0.33"/>
  
    <line x1="4" y1="4" x2="12" y2="4" stroke="#f44336" stroke-width="1.5" opacity="0.66"/>
    <line x1="4" y1="4" x2="4" y2="12" stroke="#f44336" stroke-width="1.5" opacity="0.66"/>
    <line x1="76" y1="4" x2="68" y2="4" stroke="#f44336" stroke-width="1.5" opacity="0.66"/>
    <line x1="76" y1="4" x2="76" y2="12" stroke="#f44336" stroke-width="1.5" opacity="0.66"/>
    <line x1="4" y1="76" x2="12" y2="76" stroke="#f44336" stroke-width="1.5" opacity="0.66"/>
    <line x1="4" y1="76" x2="4" y2="68" stroke="#f44336" stroke-width="1.5" opacity="0.66"/>
    <line x1="76" y1="76" x2="68" y2="76" stroke="#f44336" stroke-width="1.5" opacity="0.66"/>
    <line x1="76" y1="76" x2="76" y2="68" stroke="#f44336" stroke-width="1.5" opacity="0.66"/>
  
  
    <path d="M40 20 L56 28 L56 42 Q56 54 40 60 Q24 54 24 42 L24 28Z" fill="#f44336" opacity="0.35" stroke="#f44336" stroke-width="1.5"/>
    <path d="M40 24 L52 31 L52 42 Q52 51 40 56 Q28 51 28 42 L28 31Z" fill="#f44336" opacity="0.15"/>
    <path d="M34 36 L39 42 L50 30" stroke="#ef9a9a" stroke-width="2.5" stroke-linecap="round" stroke-linejoin="round" opacity="0.9"/>
  
  <circle cx="32" cy="71" r="1.6" fill="#f44336" opacity="0.5"/><circle cx="40" cy="71" r="1.6" fill="#f44336" opacity="0.5"/><circle cx="48" cy="71" r="2.2" fill="#ef9a9a" opacity="1"/>
</svg>