<svg xmlns="http://www.w3.org/2000/svg" viewBox="0 0 80 80" width="80" height="80">
  <defs>
    <radialGradient id="bgent6" cx="50%" cy="45%" r="60%">
      <stop offset="0%" stop-color="#f44336" stop-opacity="0.12"/>
      <stop offset="100%" stop-color="#261010" stop-opacity="1"/>
    </radialGradient>
    <radialGradient id="glowent6" cx="50%" cy="45%" r="40%">
      <stop offset="0%" stop-color="#ef9a9a" stop-opacity="0.18"/>
      <stop offset="100%" stop-color="#ef9a9a" stop-opacity="0"/>
    </radialGradient>
    <filter id="blurent6">
      <feGaussianBlur stdDeviation="2.5"/>
    </filter>
  </defs>
  <rect width="80" height="80" rx="6" fill="url(#bgent6)"/>
  <rect width="80" height="80" rx="6" fill="url(#glowent6)"/>
  <rect width="80" height="80" rx="6" fill="none" stroke="#f44336" stroke-width="0.8" opacity="0.49"/>
  
    <line x1="4" y1="4" x2="12" y2="4" stroke="#f44336" stroke-width="1.5" opacity="0.98"/>
    <line x1="4" y1="4" x2="4" y2="12" stroke="#f44336" stroke-width="1.5" opacity="0.98"/>
    <line x1="76" y1="4" x2="68" y2="4" stroke="#f44336" stroke-width="1.5" opacity="0.98"/>
    <line x1="76" y1="4" x2="76" y2="12" stroke="#f44336" stroke-width="1.5" opacity="0.98"/>
    <line x1="4" y1="76" x2="12" y2="76" stroke="#f44336" stroke-width="1.5" opacity="0.98"/>
    <line x1="4" y1="76" x2="4" y2="68" stroke="#f44336" stroke-width="1.5" opacity="0.98"/>
    <line x1="76" y1="76" x2="68" y2="76" stroke="#f44336" stroke-width="1.5" opacity="0.98"/>
    <line x1="76" y1="76" x2="76" y2="68" stroke="#f44336" stroke-width="1.5" opacity="0.98"/>
  
  
    <circle cx="40" cy="38" r="8" fill="#f44336" opacity="0.3" stroke="#f44336" stroke-width="1.5"/>
    <circle cx="40" cy="38" r="4" fill="#ef9a9a" opacity="0.7"/>
    <rect x="36" y="20" width="8" height="6" rx="2" fill="#f44336" opacity="0.7"/>
    <rect x="36" y="50" width="8" height="6" rx="2" fill="#f44336" opacity="0.7"/>
    <rect x="20" y="34" width="6" height="8" rx="2" fill="#f44336" opacity="0.7"/>
    <rect x="54" y="34" width="6" height="8" rx="2" fill="#f44336" opacity="0.7"/>
    <rect x="23" y="23" width="6" height="6" rx="1" transform="rotate(45 26 26)" fill="#f44336" opacity="0.6"/>
    <rect x="51" y="23" width="6" height="6" rx="1" transform="rotate(45 54 26)" fill="#f44336" opacity="0.6"/>
    <rect x="23" y="49" width="6" height="6" rx="1" transform="rotate(45 26 52)" fill="#f44336" opacity="0.6"/>
    <rect x="51" y="49" width="6" height="6" rx="1" transform="rotate(45 54 52)" fill="#f44336" opacity="0.6"/>
  
  <circle cx="16" cy="71" r="1.6" fill="#f44336" opacity="0.5"/><circle cx="24" cy="71" r="1.6" fill="#f44336" opacity="0.5"/><circle cx="32" cy="71" r="1.6" fill="#f44336" opacity="0.5"/><circle cx="40" cy="71" r="1.6" fill="#f44336" opacity="0.5"/><circle cx="48" cy="71" r="1.6" fill="#f44336" opacity="0.5"/><circle cx="56" cy="71" r="1.6" fill="#f44336" opacity="0.5"/><circle cx="64" cy="71" r="2.2" fill="#ef9a9a" opacity="1"/>
</svg>