<svg xmlns="http://www.w3.org/2000/svg" viewBox="0 0 80 80" width="80" height="80">
  <defs>
    <radialGradient id="bggra5" cx="50%" cy="45%" r="60%">
      <stop offset="0%" stop-color="#009688" stop-opacity="0.12"/>
      <stop offset="100%" stop-color="#0d2220" stop-opacity="1"/>
    </radialGradient>
    <radialGradient id="glowgra5" cx="50%" cy="45%" r="40%">
      <stop offset="0%" stop-color="#4db6ac" stop-opacity="0.16"/>
      <stop offset="100%" stop-color="#4db6ac" stop-opacity="0"/>
    </radialGradient>
    <filter id="blurgra5">
      <feGaussianBlur stdDeviation="2.5"/>
    </filter>
  </defs>
  <rect width="80" height="80" rx="6" fill="url(#bggra5)"/>
  <rect width="80" height="80" rx="6" fill="url(#glowgra5)"/>
  <rect width="80" height="80" rx="6" fill="none" stroke="#009688" stroke-width="0.8" opacity="0.45"/>
  
    <line x1="4" y1="4" x2="12" y2="4" stroke="#009688" stroke-width="1.5" opacity="0.9"/>
    <line x1="4" y1="4" x2="4" y2="12" stroke="#009688" stroke-width="1.5" opacity="0.9"/>
    <line x1="76" y1="4" x2="68" y2="4" stroke="#009688" stroke-width="1.5" opacity="0.9"/>
    <line x1="76" y1="4" x2="76" y2="12" stroke="#009688" stroke-width="1.5" opacity="0.9"/>
    <line x1="4" y1="76" x2="12" y2="76" stroke="#009688" stroke-width="1.5" opacity="0.9"/>
    <line x1="4" y1="76" x2="4" y2="68" stroke="#009688" stroke-width="1.5" opacity="0.9"/>
    <line x1="76" y1="76" x2="68" y2="76" stroke="#009688" stroke-width="1.5" opacity="0.9"/>
    <line x1="76" y1="76" x2="76" y2="68" stroke="#009688" stroke-width="1.5" opacity="0.9"/>
  
  
    <path d="M40 38 Q46 28 56 26 Q58 32 52 38 Q46 44 50 52 Q42 52 38 46 Q32 48 26 42 Q28 34 36 32 Q40 30 40 38Z" fill="#009688" opacity="0.35"/>
    <circle cx="40" cy="38" r="4" fill="#4db6ac" opacity="0.8"/>
    <circle cx="52" cy="28" r="2" fill="#4db6ac" opacity="0.5"/>
    <circle cx="28" cy="42" r="1.5" fill="#4db6ac" opacity="0.4"/>
    <circle cx="50" cy="50" r="1.5" fill="#009688" opacity="0.5"/>
    <circle cx="40" cy="38" r="14" fill="none" stroke="#009688" stroke-width="0.8" opacity="0.3" stroke-dasharray="4 4"/>
  
  <circle cx="20" cy="71" r="1.6" fill="#009688" opacity="0.5"/><circle cx="28" cy="71" r="1.6" fill="#009688" opacity="0.5"/><circle cx="36" cy="71" r="1.6" fill="#009688" opacity="0.5"/><circle cx="44" cy="71" r="1.6" fill="#009688" opacity="0.5"/><circle cx="52" cy="71" r="1.6" fill="#009688" opacity="0.5"/><circle cx="60" cy="71" r="2.2" fill="#4db6ac" opacity="1"/>
</svg>