<svg xmlns="http://www.w3.org/2000/svg" viewBox="0 0 80 80" width="80" height="80">
  <defs>
    <radialGradient id="bggra6" cx="50%" cy="45%" r="60%">
      <stop offset="0%" stop-color="#009688" stop-opacity="0.12"/>
      <stop offset="100%" stop-color="#0d2220" stop-opacity="1"/>
    </radialGradient>
    <radialGradient id="glowgra6" cx="50%" cy="45%" r="40%">
      <stop offset="0%" stop-color="#4db6ac" stop-opacity="0.18"/>
      <stop offset="100%" stop-color="#4db6ac" stop-opacity="0"/>
    </radialGradient>
    <filter id="blurgra6">
      <feGaussianBlur stdDeviation="2.5"/>
    </filter>
  </defs>
  <rect width="80" height="80" rx="6" fill="url(#bggra6)"/>
  <rect width="80" height="80" rx="6" fill="url(#glowgra6)"/>
  <rect width="80" height="80" rx="6" fill="none" stroke="#009688" stroke-width="0.8" opacity="0.49"/>
  
    <line x1="4" y1="4" x2="12" y2="4" stroke="#009688" stroke-width="1.5" opacity="0.98"/>
    <line x1="4" y1="4" x2="4" y2="12" stroke="#009688" stroke-width="1.5" opacity="0.98"/>
    <line x1="76" y1="4" x2="68" y2="4" stroke="#009688" stroke-width="1.5" opacity="0.98"/>
    <line x1="76" y1="4" x2="76" y2="12" stroke="#009688" stroke-width="1.5" opacity="0.98"/>
    <line x1="4" y1="76" x2="12" y2="76" stroke="#009688" stroke-width="1.5" opacity="0.98"/>
    <line x1="4" y1="76" x2="4" y2="68" stroke="#009688" stroke-width="1.5" opacity="0.98"/>
    <line x1="76" y1="76" x2="68" y2="76" stroke="#009688" stroke-width="1.5" opacity="0.98"/>
    <line x1="76" y1="76" x2="76" y2="68" stroke="#009688" stroke-width="1.5" opacity="0.98"/>
  
  
    <circle cx="40" cy="38" r="6" fill="black" opacity="0.9"/>
    <circle cx="40" cy="38" r="9" fill="none" stroke="#4db6ac" stroke-width="2" opacity="0.8"/>
    <circle cx="40" cy="38" r="13" fill="none" stroke="#009688" stroke-width="1.5" opacity="0.6"/>
    <circle cx="40" cy="38" r="17" fill="none" stroke="#009688" stroke-width="1" opacity="0.3"/>
    <path d="M40 21 Q44 30 40 38 Q36 30 40 21" fill="#009688" opacity="0.5"/>
    <path d="M57 38 Q48 42 40 38 Q48 34 57 38" fill="#009688" opacity="0.5"/>
  
  <circle cx="16" cy="71" r="1.6" fill="#009688" opacity="0.5"/><circle cx="24" cy="71" r="1.6" fill="#009688" opacity="0.5"/><circle cx="32" cy="71" r="1.6" fill="#009688" opacity="0.5"/><circle cx="40" cy="71" r="1.6" fill="#009688" opacity="0.5"/><circle cx="48" cy="71" r="1.6" fill="#009688" opacity="0.5"/><circle cx="56" cy="71" r="1.6" fill="#009688" opacity="0.5"/><circle cx="64" cy="71" r="2.2" fill="#4db6ac" opacity="1"/>
</svg>