<svg xmlns="http://www.w3.org/2000/svg" viewBox="0 0 80 80" width="80" height="80">
  <defs>
    <radialGradient id="bggra3" cx="50%" cy="45%" r="60%">
      <stop offset="0%" stop-color="#009688" stop-opacity="0.12"/>
      <stop offset="100%" stop-color="#0d2220" stop-opacity="1"/>
    </radialGradient>
    <radialGradient id="glowgra3" cx="50%" cy="45%" r="40%">
      <stop offset="0%" stop-color="#4db6ac" stop-opacity="0.12"/>
      <stop offset="100%" stop-color="#4db6ac" stop-opacity="0"/>
    </radialGradient>
    <filter id="blurgra3">
      <feGaussianBlur stdDeviation="2.5"/>
    </filter>
  </defs>
  <rect width="80" height="80" rx="6" fill="url(#bggra3)"/>
  <rect width="80" height="80" rx="6" fill="url(#glowgra3)"/>
  <rect width="80" height="80" rx="6" fill="none" stroke="#009688" stroke-width="0.8" opacity="0.37"/>
  
    <line x1="4" y1="4" x2="12" y2="4" stroke="#009688" stroke-width="1.5" opacity="0.74"/>
    <line x1="4" y1="4" x2="4" y2="12" stroke="#009688" stroke-width="1.5" opacity="0.74"/>
    <line x1="76" y1="4" x2="68" y2="4" stroke="#009688" stroke-width="1.5" opacity="0.74"/>
    <line x1="76" y1="4" x2="76" y2="12" stroke="#009688" stroke-width="1.5" opacity="0.74"/>
    <line x1="4" y1="76" x2="12" y2="76" stroke="#009688" stroke-width="1.5" opacity="0.74"/>
    <line x1="4" y1="76" x2="4" y2="68" stroke="#009688" stroke-width="1.5" opacity="0.74"/>
    <line x1="76" y1="76" x2="68" y2="76" stroke="#009688" stroke-width="1.5" opacity="0.74"/>
    <line x1="76" y1="76" x2="76" y2="68" stroke="#009688" stroke-width="1.5" opacity="0.74"/>
  
  
    <circle cx="40" cy="38" r="14" fill="none" stroke="#009688" stroke-width="2" opacity="0.6"/>
    <ellipse cx="40" cy="38" rx="14" ry="5" fill="none" stroke="#4db6ac" stroke-width="1.5" opacity="0.7"/>
    <circle cx="40" cy="38" r="4" fill="#009688" opacity="0.5"/>
    <circle cx="54" cy="38" r="3" fill="#4db6ac" opacity="0.8"/>
    <line x1="40" y1="24" x2="40" y2="32" stroke="#009688" stroke-width="1.5" opacity="0.5"/>
    <line x1="40" y1="44" x2="40" y2="52" stroke="#009688" stroke-width="1.5" opacity="0.5"/>
  
  <circle cx="28" cy="71" r="1.6" fill="#009688" opacity="0.5"/><circle cx="36" cy="71" r="1.6" fill="#009688" opacity="0.5"/><circle cx="44" cy="71" r="1.6" fill="#009688" opacity="0.5"/><circle cx="52" cy="71" r="2.2" fill="#4db6ac" opacity="1"/>
</svg>