<svg xmlns="http://www.w3.org/2000/svg" viewBox="0 0 80 80" width="80" height="80">
  <defs>
    <radialGradient id="bgkin6" cx="50%" cy="45%" r="60%">
      <stop offset="0%" stop-color="#ff9800" stop-opacity="0.12"/>
      <stop offset="100%" stop-color="#261b0d" stop-opacity="1"/>
    </radialGradient>
    <radialGradient id="glowkin6" cx="50%" cy="45%" r="40%">
      <stop offset="0%" stop-color="#ffb74d" stop-opacity="0.18"/>
      <stop offset="100%" stop-color="#ffb74d" stop-opacity="0"/>
    </radialGradient>
    <filter id="blurkin6">
      <feGaussianBlur stdDeviation="2.5"/>
    </filter>
  </defs>
  <rect width="80" height="80" rx="6" fill="url(#bgkin6)"/>
  <rect width="80" height="80" rx="6" fill="url(#glowkin6)"/>
  <rect width="80" height="80" rx="6" fill="none" stroke="#ff9800" stroke-width="0.8" opacity="0.49"/>
  
    <line x1="4" y1="4" x2="12" y2="4" stroke="#ff9800" stroke-width="1.5" opacity="0.98"/>
    <line x1="4" y1="4" x2="4" y2="12" stroke="#ff9800" stroke-width="1.5" opacity="0.98"/>
    <line x1="76" y1="4" x2="68" y2="4" stroke="#ff9800" stroke-width="1.5" opacity="0.98"/>
    <line x1="76" y1="4" x2="76" y2="12" stroke="#ff9800" stroke-width="1.5" opacity="0.98"/>
    <line x1="4" y1="76" x2="12" y2="76" stroke="#ff9800" stroke-width="1.5" opacity="0.98"/>
    <line x1="4" y1="76" x2="4" y2="68" stroke="#ff9800" stroke-width="1.5" opacity="0.98"/>
    <line x1="76" y1="76" x2="68" y2="76" stroke="#ff9800" stroke-width="1.5" opacity="0.98"/>
    <line x1="76" y1="76" x2="76" y2="68" stroke="#ff9800" stroke-width="1.5" opacity="0.98"/>
  
  
    <ellipse cx="40" cy="24" rx="14" ry="5" fill="#ff9800" opacity="0.4"/>
    <ellipse cx="40" cy="24" rx="14" ry="5" fill="none" stroke="#ff9800" stroke-width="1.5" opacity="0.7"/>
    <path d="M26 24 Q32 36 36 48 L44 48 Q48 36 54 24" fill="#ff9800" opacity="0.2"/>
    <path d="M28 30 L52 30" stroke="#ff9800" stroke-width="1" opacity="0.3"/>
    <path d="M31 36 L49 36" stroke="#ff9800" stroke-width="1" opacity="0.3"/>
    <path d="M34 42 L46 42" stroke="#ff9800" stroke-width="1" opacity="0.3"/>
    <ellipse cx="40" cy="48" rx="5" ry="2" fill="#ffb74d" opacity="0.7"/>
  
  <circle cx="16" cy="71" r="1.6" fill="#ff9800" opacity="0.5"/><circle cx="24" cy="71" r="1.6" fill="#ff9800" opacity="0.5"/><circle cx="32" cy="71" r="1.6" fill="#ff9800" opacity="0.5"/><circle cx="40" cy="71" r="1.6" fill="#ff9800" opacity="0.5"/><circle cx="48" cy="71" r="1.6" fill="#ff9800" opacity="0.5"/><circle cx="56" cy="71" r="1.6" fill="#ff9800" opacity="0.5"/><circle cx="64" cy="71" r="2.2" fill="#ffb74d" opacity="1"/>
</svg>