<svg xmlns="http://www.w3.org/2000/svg" viewBox="0 0 80 80" width="80" height="80">
  <defs>
    <radialGradient id="bgkin2" cx="50%" cy="45%" r="60%">
      <stop offset="0%" stop-color="#ff9800" stop-opacity="0.12"/>
      <stop offset="100%" stop-color="#261b0d" stop-opacity="1"/>
    </radialGradient>
    <radialGradient id="glowkin2" cx="50%" cy="45%" r="40%">
      <stop offset="0%" stop-color="#ffb74d" stop-opacity="0.1"/>
      <stop offset="100%" stop-color="#ffb74d" stop-opacity="0"/>
    </radialGradient>
    <filter id="blurkin2">
      <feGaussianBlur stdDeviation="2.5"/>
    </filter>
  </defs>
  <rect width="80" height="80" rx="6" fill="url(#bgkin2)"/>
  <rect width="80" height="80" rx="6" fill="url(#glowkin2)"/>
  <rect width="80" height="80" rx="6" fill="none" stroke="#ff9800" stroke-width="0.8" opacity="0.33"/>
  
    <line x1="4" y1="4" x2="12" y2="4" stroke="#ff9800" stroke-width="1.5" opacity="0.66"/>
    <line x1="4" y1="4" x2="4" y2="12" stroke="#ff9800" stroke-width="1.5" opacity="0.66"/>
    <line x1="76" y1="4" x2="68" y2="4" stroke="#ff9800" stroke-width="1.5" opacity="0.66"/>
    <line x1="76" y1="4" x2="76" y2="12" stroke="#ff9800" stroke-width="1.5" opacity="0.66"/>
    <line x1="4" y1="76" x2="12" y2="76" stroke="#ff9800" stroke-width="1.5" opacity="0.66"/>
    <line x1="4" y1="76" x2="4" y2="68" stroke="#ff9800" stroke-width="1.5" opacity="0.66"/>
    <line x1="76" y1="76" x2="68" y2="76" stroke="#ff9800" stroke-width="1.5" opacity="0.66"/>
    <line x1="76" y1="76" x2="76" y2="68" stroke="#ff9800" stroke-width="1.5" opacity="0.66"/>
  
  
    <path d="M40 18 L43 44 L40 48 L37 44Z" fill="#ff9800" opacity="0.85"/>
    <path d="M40 18 L41.5 44 L40 48 L38.5 44Z" fill="#ffb74d" opacity="0.5"/>
    <line x1="32" y1="40" x2="48" y2="40" stroke="#ff9800" stroke-width="2.5" opacity="0.7"/>
    <circle cx="40" cy="48" r="3" fill="#ff9800" opacity="0.6"/>
    <line x1="40" y1="51" x2="40" y2="57" stroke="#ff9800" stroke-width="2" opacity="0.5"/>
  
  <circle cx="32" cy="71" r="1.6" fill="#ff9800" opacity="0.5"/><circle cx="40" cy="71" r="1.6" fill="#ff9800" opacity="0.5"/><circle cx="48" cy="71" r="2.2" fill="#ffb74d" opacity="1"/>
</svg>