<svg xmlns="http://www.w3.org/2000/svg" viewBox="0 0 80 80" width="80" height="80">
  <defs>
    <radialGradient id="bgkin1" cx="50%" cy="45%" r="60%">
      <stop offset="0%" stop-color="#ff9800" stop-opacity="0.12"/>
      <stop offset="100%" stop-color="#261b0d" stop-opacity="1"/>
    </radialGradient>
    <radialGradient id="glowkin1" cx="50%" cy="45%" r="40%">
      <stop offset="0%" stop-color="#ffb74d" stop-opacity="0.08"/>
      <stop offset="100%" stop-color="#ffb74d" stop-opacity="0"/>
    </radialGradient>
    <filter id="blurkin1">
      <feGaussianBlur stdDeviation="2.5"/>
    </filter>
  </defs>
  <rect width="80" height="80" rx="6" fill="url(#bgkin1)"/>
  <rect width="80" height="80" rx="6" fill="url(#glowkin1)"/>
  <rect width="80" height="80" rx="6" fill="none" stroke="#ff9800" stroke-width="0.8" opacity="0.29"/>
  
    <line x1="4" y1="4" x2="12" y2="4" stroke="#ff9800" stroke-width="1.5" opacity="0.58"/>
    <line x1="4" y1="4" x2="4" y2="12" stroke="#ff9800" stroke-width="1.5" opacity="0.58"/>
    <line x1="76" y1="4" x2="68" y2="4" stroke="#ff9800" stroke-width="1.5" opacity="0.58"/>
    <line x1="76" y1="4" x2="76" y2="12" stroke="#ff9800" stroke-width="1.5" opacity="0.58"/>
    <line x1="4" y1="76" x2="12" y2="76" stroke="#ff9800" stroke-width="1.5" opacity="0.58"/>
    <line x1="4" y1="76" x2="4" y2="68" stroke="#ff9800" stroke-width="1.5" opacity="0.58"/>
    <line x1="76" y1="76" x2="68" y2="76" stroke="#ff9800" stroke-width="1.5" opacity="0.58"/>
    <line x1="76" y1="76" x2="76" y2="68" stroke="#ff9800" stroke-width="1.5" opacity="0.58"/>
  
  
    <path d="M20 40 L34 34 L28 38 L50 30 L38 40 L55 36 L36 48Z" fill="#ff9800" opacity="0.7"/>
    <path d="M20 40 L34 34 L28 38 L50 30 L38 40 L55 36 L36 48Z" fill="#ffb74d" opacity="0.3"/>
    <line x1="22" y1="44" x2="34" y2="44" stroke="#ff9800" stroke-width="1.2" opacity="0.4"/>
    <line x1="18" y1="48" x2="30" y2="48" stroke="#ff9800" stroke-width="1" opacity="0.3"/>
  
  <circle cx="36" cy="71" r="1.6" fill="#ff9800" opacity="0.5"/><circle cx="44" cy="71" r="2.2" fill="#ffb74d" opacity="1"/>
</svg>