<svg xmlns="http://www.w3.org/2000/svg" viewBox="0 0 80 80" width="80" height="80">
  <defs>
    <radialGradient id="bgkin5" cx="50%" cy="45%" r="60%">
      <stop offset="0%" stop-color="#ff9800" stop-opacity="0.12"/>
      <stop offset="100%" stop-color="#261b0d" stop-opacity="1"/>
    </radialGradient>
    <radialGradient id="glowkin5" cx="50%" cy="45%" r="40%">
      <stop offset="0%" stop-color="#ffb74d" stop-opacity="0.16"/>
      <stop offset="100%" stop-color="#ffb74d" stop-opacity="0"/>
    </radialGradient>
    <filter id="blurkin5">
      <feGaussianBlur stdDeviation="2.5"/>
    </filter>
  </defs>
  <rect width="80" height="80" rx="6" fill="url(#bgkin5)"/>
  <rect width="80" height="80" rx="6" fill="url(#glowkin5)"/>
  <rect width="80" height="80" rx="6" fill="none" stroke="#ff9800" stroke-width="0.8" opacity="0.45"/>
  
    <line x1="4" y1="4" x2="12" y2="4" stroke="#ff9800" stroke-width="1.5" opacity="0.9"/>
    <line x1="4" y1="4" x2="4" y2="12" stroke="#ff9800" stroke-width="1.5" opacity="0.9"/>
    <line x1="76" y1="4" x2="68" y2="4" stroke="#ff9800" stroke-width="1.5" opacity="0.9"/>
    <line x1="76" y1="4" x2="76" y2="12" stroke="#ff9800" stroke-width="1.5" opacity="0.9"/>
    <line x1="4" y1="76" x2="12" y2="76" stroke="#ff9800" stroke-width="1.5" opacity="0.9"/>
    <line x1="4" y1="76" x2="4" y2="68" stroke="#ff9800" stroke-width="1.5" opacity="0.9"/>
    <line x1="76" y1="76" x2="68" y2="76" stroke="#ff9800" stroke-width="1.5" opacity="0.9"/>
    <line x1="76" y1="76" x2="76" y2="68" stroke="#ff9800" stroke-width="1.5" opacity="0.9"/>
  
  
    <path d="M32 20 Q28 32 34 42" fill="none" stroke="#ff9800" stroke-width="3" stroke-linecap="round" opacity="0.85"/>
    <path d="M40 18 Q40 32 40 44" fill="none" stroke="#ff9800" stroke-width="3" stroke-linecap="round" opacity="0.85"/>
    <path d="M48 20 Q52 32 46 42" fill="none" stroke="#ff9800" stroke-width="3" stroke-linecap="round" opacity="0.85"/>
    <path d="M30 42 Q34 52 32 58" fill="none" stroke="#ffb74d" stroke-width="2" stroke-linecap="round" opacity="0.7"/>
    <path d="M40 44 L40 58" fill="none" stroke="#ffb74d" stroke-width="2" stroke-linecap="round" opacity="0.7"/>
    <path d="M50 42 Q46 52 48 58" fill="none" stroke="#ffb74d" stroke-width="2" stroke-linecap="round" opacity="0.7"/>
  
  <circle cx="20" cy="71" r="1.6" fill="#ff9800" opacity="0.5"/><circle cx="28" cy="71" r="1.6" fill="#ff9800" opacity="0.5"/><circle cx="36" cy="71" r="1.6" fill="#ff9800" opacity="0.5"/><circle cx="44" cy="71" r="1.6" fill="#ff9800" opacity="0.5"/><circle cx="52" cy="71" r="1.6" fill="#ff9800" opacity="0.5"/><circle cx="60" cy="71" r="2.2" fill="#ffb74d" opacity="1"/>
</svg>