<svg xmlns="http://www.w3.org/2000/svg" viewBox="0 0 80 80" width="80" height="80">
  <defs>
    <radialGradient id="bgneu3" cx="50%" cy="45%" r="60%">
      <stop offset="0%" stop-color="#00bcd4" stop-opacity="0.12"/>
      <stop offset="100%" stop-color="#0d2126" stop-opacity="1"/>
    </radialGradient>
    <radialGradient id="glowneu3" cx="50%" cy="45%" r="40%">
      <stop offset="0%" stop-color="#4dd0e1" stop-opacity="0.12"/>
      <stop offset="100%" stop-color="#4dd0e1" stop-opacity="0"/>
    </radialGradient>
    <filter id="blurneu3">
      <feGaussianBlur stdDeviation="2.5"/>
    </filter>
  </defs>
  <rect width="80" height="80" rx="6" fill="url(#bgneu3)"/>
  <rect width="80" height="80" rx="6" fill="url(#glowneu3)"/>
  <rect width="80" height="80" rx="6" fill="none" stroke="#00bcd4" stroke-width="0.8" opacity="0.37"/>
  
    <line x1="4" y1="4" x2="12" y2="4" stroke="#00bcd4" stroke-width="1.5" opacity="0.74"/>
    <line x1="4" y1="4" x2="4" y2="12" stroke="#00bcd4" stroke-width="1.5" opacity="0.74"/>
    <line x1="76" y1="4" x2="68" y2="4" stroke="#00bcd4" stroke-width="1.5" opacity="0.74"/>
    <line x1="76" y1="4" x2="76" y2="12" stroke="#00bcd4" stroke-width="1.5" opacity="0.74"/>
    <line x1="4" y1="76" x2="12" y2="76" stroke="#00bcd4" stroke-width="1.5" opacity="0.74"/>
    <line x1="4" y1="76" x2="4" y2="68" stroke="#00bcd4" stroke-width="1.5" opacity="0.74"/>
    <line x1="76" y1="76" x2="68" y2="76" stroke="#00bcd4" stroke-width="1.5" opacity="0.74"/>
    <line x1="76" y1="76" x2="76" y2="68" stroke="#00bcd4" stroke-width="1.5" opacity="0.74"/>
  
  
    <circle cx="40" cy="38" r="14" fill="none" stroke="#00bcd4" stroke-width="1.5" opacity="0.5"/>
    <circle cx="40" cy="38" r="8" fill="none" stroke="#00bcd4" stroke-width="1.2" opacity="0.6"/>
    <circle cx="40" cy="38" r="3" fill="#4dd0e1" opacity="0.95"/>
    <line x1="24" y1="38" x2="32" y2="38" stroke="#00bcd4" stroke-width="1.5" opacity="0.7"/>
    <line x1="48" y1="38" x2="56" y2="38" stroke="#00bcd4" stroke-width="1.5" opacity="0.7"/>
    <line x1="40" y1="22" x2="40" y2="30" stroke="#00bcd4" stroke-width="1.5" opacity="0.7"/>
    <line x1="40" y1="46" x2="40" y2="54" stroke="#00bcd4" stroke-width="1.5" opacity="0.7"/>
  
  <circle cx="28" cy="71" r="1.6" fill="#00bcd4" opacity="0.5"/><circle cx="36" cy="71" r="1.6" fill="#00bcd4" opacity="0.5"/><circle cx="44" cy="71" r="1.6" fill="#00bcd4" opacity="0.5"/><circle cx="52" cy="71" r="2.2" fill="#4dd0e1" opacity="1"/>
</svg>