<svg xmlns="http://www.w3.org/2000/svg" viewBox="0 0 80 80" width="80" height="80">
  <defs>
    <radialGradient id="bgneu2" cx="50%" cy="45%" r="60%">
      <stop offset="0%" stop-color="#00bcd4" stop-opacity="0.12"/>
      <stop offset="100%" stop-color="#0d2126" stop-opacity="1"/>
    </radialGradient>
    <radialGradient id="glowneu2" cx="50%" cy="45%" r="40%">
      <stop offset="0%" stop-color="#4dd0e1" stop-opacity="0.1"/>
      <stop offset="100%" stop-color="#4dd0e1" stop-opacity="0"/>
    </radialGradient>
    <filter id="blurneu2">
      <feGaussianBlur stdDeviation="2.5"/>
    </filter>
  </defs>
  <rect width="80" height="80" rx="6" fill="url(#bgneu2)"/>
  <rect width="80" height="80" rx="6" fill="url(#glowneu2)"/>
  <rect width="80" height="80" rx="6" fill="none" stroke="#00bcd4" stroke-width="0.8" opacity="0.33"/>
  
    <line x1="4" y1="4" x2="12" y2="4" stroke="#00bcd4" stroke-width="1.5" opacity="0.66"/>
    <line x1="4" y1="4" x2="4" y2="12" stroke="#00bcd4" stroke-width="1.5" opacity="0.66"/>
    <line x1="76" y1="4" x2="68" y2="4" stroke="#00bcd4" stroke-width="1.5" opacity="0.66"/>
    <line x1="76" y1="4" x2="76" y2="12" stroke="#00bcd4" stroke-width="1.5" opacity="0.66"/>
    <line x1="4" y1="76" x2="12" y2="76" stroke="#00bcd4" stroke-width="1.5" opacity="0.66"/>
    <line x1="4" y1="76" x2="4" y2="68" stroke="#00bcd4" stroke-width="1.5" opacity="0.66"/>
    <line x1="76" y1="76" x2="68" y2="76" stroke="#00bcd4" stroke-width="1.5" opacity="0.66"/>
    <line x1="76" y1="76" x2="76" y2="68" stroke="#00bcd4" stroke-width="1.5" opacity="0.66"/>
  
  
    <rect x="24" y="24" width="32" height="6" rx="1" fill="#00bcd4" opacity="0.6"/>
    <rect x="24" y="32" width="32" height="6" rx="1" fill="#00bcd4" opacity="0.45"/>
    <rect x="24" y="40" width="32" height="6" rx="1" fill="#00bcd4" opacity="0.3"/>
    <rect x="22" y="22" width="36" height="32" rx="2" fill="none" stroke="#4dd0e1" stroke-width="1.5" opacity="0.7"/>
    <path d="M38 18 L42 18 L40 22Z" fill="#4dd0e1" opacity="0.8"/>
    <path d="M34 18 L38 22 M42 18 L46 22" stroke="#00bcd4" stroke-width="1" opacity="0.5"/>
  
  <circle cx="32" cy="71" r="1.6" fill="#00bcd4" opacity="0.5"/><circle cx="40" cy="71" r="1.6" fill="#00bcd4" opacity="0.5"/><circle cx="48" cy="71" r="2.2" fill="#4dd0e1" opacity="1"/>
</svg>