<svg xmlns="http://www.w3.org/2000/svg" viewBox="0 0 80 80" width="80" height="80">
  <defs>
    <radialGradient id="bgneu5" cx="50%" cy="45%" r="60%">
      <stop offset="0%" stop-color="#00bcd4" stop-opacity="0.12"/>
      <stop offset="100%" stop-color="#0d2126" stop-opacity="1"/>
    </radialGradient>
    <radialGradient id="glowneu5" cx="50%" cy="45%" r="40%">
      <stop offset="0%" stop-color="#4dd0e1" stop-opacity="0.16"/>
      <stop offset="100%" stop-color="#4dd0e1" stop-opacity="0"/>
    </radialGradient>
    <filter id="blurneu5">
      <feGaussianBlur stdDeviation="2.5"/>
    </filter>
  </defs>
  <rect width="80" height="80" rx="6" fill="url(#bgneu5)"/>
  <rect width="80" height="80" rx="6" fill="url(#glowneu5)"/>
  <rect width="80" height="80" rx="6" fill="none" stroke="#00bcd4" stroke-width="0.8" opacity="0.45"/>
  
    <line x1="4" y1="4" x2="12" y2="4" stroke="#00bcd4" stroke-width="1.5" opacity="0.9"/>
    <line x1="4" y1="4" x2="4" y2="12" stroke="#00bcd4" stroke-width="1.5" opacity="0.9"/>
    <line x1="76" y1="4" x2="68" y2="4" stroke="#00bcd4" stroke-width="1.5" opacity="0.9"/>
    <line x1="76" y1="4" x2="76" y2="12" stroke="#00bcd4" stroke-width="1.5" opacity="0.9"/>
    <line x1="4" y1="76" x2="12" y2="76" stroke="#00bcd4" stroke-width="1.5" opacity="0.9"/>
    <line x1="4" y1="76" x2="4" y2="68" stroke="#00bcd4" stroke-width="1.5" opacity="0.9"/>
    <line x1="76" y1="76" x2="68" y2="76" stroke="#00bcd4" stroke-width="1.5" opacity="0.9"/>
    <line x1="76" y1="76" x2="76" y2="68" stroke="#00bcd4" stroke-width="1.5" opacity="0.9"/>
  
  
    <circle cx="40" cy="38" r="16" fill="none" stroke="#00bcd4" stroke-width="1.5" opacity="0.6"/>
    <ellipse cx="40" cy="38" rx="8" ry="16" fill="none" stroke="#00bcd4" stroke-width="1" opacity="0.4"/>
    <line x1="24" y1="38" x2="56" y2="38" stroke="#00bcd4" stroke-width="1" opacity="0.4"/>
    <line x1="26" y1="30" x2="54" y2="30" stroke="#00bcd4" stroke-width="1" opacity="0.3"/>
    <line x1="26" y1="46" x2="54" y2="46" stroke="#00bcd4" stroke-width="1" opacity="0.3"/>
    <circle cx="40" cy="38" r="4" fill="#4dd0e1" opacity="0.7"/>
  
  <circle cx="20" cy="71" r="1.6" fill="#00bcd4" opacity="0.5"/><circle cx="28" cy="71" r="1.6" fill="#00bcd4" opacity="0.5"/><circle cx="36" cy="71" r="1.6" fill="#00bcd4" opacity="0.5"/><circle cx="44" cy="71" r="1.6" fill="#00bcd4" opacity="0.5"/><circle cx="52" cy="71" r="1.6" fill="#00bcd4" opacity="0.5"/><circle cx="60" cy="71" r="2.2" fill="#4dd0e1" opacity="1"/>
</svg>