<svg xmlns="http://www.w3.org/2000/svg" viewBox="0 0 80 80" width="80" height="80">
  <defs>
    <radialGradient id="bgneu4" cx="50%" cy="45%" r="60%">
      <stop offset="0%" stop-color="#00bcd4" stop-opacity="0.12"/>
      <stop offset="100%" stop-color="#0d2126" stop-opacity="1"/>
    </radialGradient>
    <radialGradient id="glowneu4" cx="50%" cy="45%" r="40%">
      <stop offset="0%" stop-color="#4dd0e1" stop-opacity="0.14"/>
      <stop offset="100%" stop-color="#4dd0e1" stop-opacity="0"/>
    </radialGradient>
    <filter id="blurneu4">
      <feGaussianBlur stdDeviation="2.5"/>
    </filter>
  </defs>
  <rect width="80" height="80" rx="6" fill="url(#bgneu4)"/>
  <rect width="80" height="80" rx="6" fill="url(#glowneu4)"/>
  <rect width="80" height="80" rx="6" fill="none" stroke="#00bcd4" stroke-width="0.8" opacity="0.41000000000000003"/>
  
    <line x1="4" y1="4" x2="12" y2="4" stroke="#00bcd4" stroke-width="1.5" opacity="0.8200000000000001"/>
    <line x1="4" y1="4" x2="4" y2="12" stroke="#00bcd4" stroke-width="1.5" opacity="0.8200000000000001"/>
    <line x1="76" y1="4" x2="68" y2="4" stroke="#00bcd4" stroke-width="1.5" opacity="0.8200000000000001"/>
    <line x1="76" y1="4" x2="76" y2="12" stroke="#00bcd4" stroke-width="1.5" opacity="0.8200000000000001"/>
    <line x1="4" y1="76" x2="12" y2="76" stroke="#00bcd4" stroke-width="1.5" opacity="0.8200000000000001"/>
    <line x1="4" y1="76" x2="4" y2="68" stroke="#00bcd4" stroke-width="1.5" opacity="0.8200000000000001"/>
    <line x1="76" y1="76" x2="68" y2="76" stroke="#00bcd4" stroke-width="1.5" opacity="0.8200000000000001"/>
    <line x1="76" y1="76" x2="76" y2="68" stroke="#00bcd4" stroke-width="1.5" opacity="0.8200000000000001"/>
  
  
    <circle cx="40" cy="38" r="6" fill="#00bcd4" opacity="0.8"/>
    <circle cx="26" cy="28" r="4" fill="#00bcd4" opacity="0.6"/>
    <circle cx="54" cy="28" r="4" fill="#00bcd4" opacity="0.6"/>
    <circle cx="26" cy="48" r="4" fill="#00bcd4" opacity="0.5"/>
    <circle cx="54" cy="48" r="4" fill="#00bcd4" opacity="0.5"/>
    <line x1="34" y1="36" x2="30" y2="30" stroke="#4dd0e1" stroke-width="1.5" opacity="0.7"/>
    <line x1="46" y1="36" x2="50" y2="30" stroke="#4dd0e1" stroke-width="1.5" opacity="0.7"/>
    <line x1="34" y1="40" x2="30" y2="46" stroke="#4dd0e1" stroke-width="1.5" opacity="0.7"/>
    <line x1="46" y1="40" x2="50" y2="46" stroke="#4dd0e1" stroke-width="1.5" opacity="0.7"/>
    <path d="M38 30 L42 26 L44 30 L40 28Z" fill="#4dd0e1" opacity="0.9"/>
  
  <circle cx="24" cy="71" r="1.6" fill="#00bcd4" opacity="0.5"/><circle cx="32" cy="71" r="1.6" fill="#00bcd4" opacity="0.5"/><circle cx="40" cy="71" r="1.6" fill="#00bcd4" opacity="0.5"/><circle cx="48" cy="71" r="1.6" fill="#00bcd4" opacity="0.5"/><circle cx="56" cy="71" r="2.2" fill="#4dd0e1" opacity="1"/>
</svg>