<svg xmlns="http://www.w3.org/2000/svg" viewBox="0 0 80 80" width="80" height="80">
  <defs>
    <radialGradient id="bgneu1" cx="50%" cy="45%" r="60%">
      <stop offset="0%" stop-color="#00bcd4" stop-opacity="0.12"/>
      <stop offset="100%" stop-color="#0d2126" stop-opacity="1"/>
    </radialGradient>
    <radialGradient id="glowneu1" cx="50%" cy="45%" r="40%">
      <stop offset="0%" stop-color="#4dd0e1" stop-opacity="0.08"/>
      <stop offset="100%" stop-color="#4dd0e1" stop-opacity="0"/>
    </radialGradient>
    <filter id="blurneu1">
      <feGaussianBlur stdDeviation="2.5"/>
    </filter>
  </defs>
  <rect width="80" height="80" rx="6" fill="url(#bgneu1)"/>
  <rect width="80" height="80" rx="6" fill="url(#glowneu1)"/>
  <rect width="80" height="80" rx="6" fill="none" stroke="#00bcd4" stroke-width="0.8" opacity="0.29"/>
  
    <line x1="4" y1="4" x2="12" y2="4" stroke="#00bcd4" stroke-width="1.5" opacity="0.58"/>
    <line x1="4" y1="4" x2="4" y2="12" stroke="#00bcd4" stroke-width="1.5" opacity="0.58"/>
    <line x1="76" y1="4" x2="68" y2="4" stroke="#00bcd4" stroke-width="1.5" opacity="0.58"/>
    <line x1="76" y1="4" x2="76" y2="12" stroke="#00bcd4" stroke-width="1.5" opacity="0.58"/>
    <line x1="4" y1="76" x2="12" y2="76" stroke="#00bcd4" stroke-width="1.5" opacity="0.58"/>
    <line x1="4" y1="76" x2="4" y2="68" stroke="#00bcd4" stroke-width="1.5" opacity="0.58"/>
    <line x1="76" y1="76" x2="68" y2="76" stroke="#00bcd4" stroke-width="1.5" opacity="0.58"/>
    <line x1="76" y1="76" x2="76" y2="68" stroke="#00bcd4" stroke-width="1.5" opacity="0.58"/>
  
  
    <circle cx="40" cy="42" r="3" fill="#4dd0e1" opacity="0.95"/>
    <path d="M33 35 Q40 28 47 35" fill="none" stroke="#00bcd4" stroke-width="2" opacity="0.7"/>
    <path d="M28 30 Q40 20 52 30" fill="none" stroke="#00bcd4" stroke-width="2" opacity="0.5"/>
    <path d="M23 25 Q40 12 57 25" fill="none" stroke="#00bcd4" stroke-width="1.5" opacity="0.3"/>
    <line x1="40" y1="42" x2="40" y2="55" stroke="#00bcd4" stroke-width="2" opacity="0.6"/>
    <line x1="33" y1="55" x2="47" y2="55" stroke="#00bcd4" stroke-width="1.5" opacity="0.5"/>
  
  <circle cx="36" cy="71" r="1.6" fill="#00bcd4" opacity="0.5"/><circle cx="44" cy="71" r="2.2" fill="#4dd0e1" opacity="1"/>
</svg>