<svg xmlns="http://www.w3.org/2000/svg" viewBox="0 0 80 80" width="80" height="80">
  <defs>
    <radialGradient id="bgqnt1" cx="50%" cy="45%" r="60%">
      <stop offset="0%" stop-color="#9c27b0" stop-opacity="0.12"/>
      <stop offset="100%" stop-color="#1a0d22" stop-opacity="1"/>
    </radialGradient>
    <radialGradient id="glowqnt1" cx="50%" cy="45%" r="40%">
      <stop offset="0%" stop-color="#ce93d8" stop-opacity="0.08"/>
      <stop offset="100%" stop-color="#ce93d8" stop-opacity="0"/>
    </radialGradient>
    <filter id="blurqnt1">
      <feGaussianBlur stdDeviation="2.5"/>
    </filter>
  </defs>
  <rect width="80" height="80" rx="6" fill="url(#bgqnt1)"/>
  <rect width="80" height="80" rx="6" fill="url(#glowqnt1)"/>
  <rect width="80" height="80" rx="6" fill="none" stroke="#9c27b0" stroke-width="0.8" opacity="0.29"/>
  
    <line x1="4" y1="4" x2="12" y2="4" stroke="#9c27b0" stroke-width="1.5" opacity="0.58"/>
    <line x1="4" y1="4" x2="4" y2="12" stroke="#9c27b0" stroke-width="1.5" opacity="0.58"/>
    <line x1="76" y1="4" x2="68" y2="4" stroke="#9c27b0" stroke-width="1.5" opacity="0.58"/>
    <line x1="76" y1="4" x2="76" y2="12" stroke="#9c27b0" stroke-width="1.5" opacity="0.58"/>
    <line x1="4" y1="76" x2="12" y2="76" stroke="#9c27b0" stroke-width="1.5" opacity="0.58"/>
    <line x1="4" y1="76" x2="4" y2="68" stroke="#9c27b0" stroke-width="1.5" opacity="0.58"/>
    <line x1="76" y1="76" x2="68" y2="76" stroke="#9c27b0" stroke-width="1.5" opacity="0.58"/>
    <line x1="76" y1="76" x2="76" y2="68" stroke="#9c27b0" stroke-width="1.5" opacity="0.58"/>
  
  
    <rect x="24" y="34" width="28" height="8" rx="3" fill="#9c27b0" opacity="0.6"/>
    <rect x="26" y="30" width="6" height="16" rx="2" fill="#9c27b0" opacity="0.5"/>
    <circle cx="52" cy="38" r="8" fill="none" stroke="#ce93d8" stroke-width="2" opacity="0.8"/>
    <circle cx="52" cy="38" r="4" fill="#ce93d8" opacity="0.3"/>
    <circle cx="52" cy="38" r="2" fill="#ce93d8" opacity="0.8"/>
    <line x1="24" y1="42" x2="20" y2="52" stroke="#9c27b0" stroke-width="2" opacity="0.5"/>
  
  <circle cx="36" cy="71" r="1.6" fill="#9c27b0" opacity="0.5"/><circle cx="44" cy="71" r="2.2" fill="#ce93d8" opacity="1"/>
</svg>