<svg xmlns="http://www.w3.org/2000/svg" viewBox="0 0 80 80" width="80" height="80">
  <defs>
    <radialGradient id="bgqnt3" cx="50%" cy="45%" r="60%">
      <stop offset="0%" stop-color="#9c27b0" stop-opacity="0.12"/>
      <stop offset="100%" stop-color="#1a0d22" stop-opacity="1"/>
    </radialGradient>
    <radialGradient id="glowqnt3" cx="50%" cy="45%" r="40%">
      <stop offset="0%" stop-color="#ce93d8" stop-opacity="0.12"/>
      <stop offset="100%" stop-color="#ce93d8" stop-opacity="0"/>
    </radialGradient>
    <filter id="blurqnt3">
      <feGaussianBlur stdDeviation="2.5"/>
    </filter>
  </defs>
  <rect width="80" height="80" rx="6" fill="url(#bgqnt3)"/>
  <rect width="80" height="80" rx="6" fill="url(#glowqnt3)"/>
  <rect width="80" height="80" rx="6" fill="none" stroke="#9c27b0" stroke-width="0.8" opacity="0.37"/>
  
    <line x1="4" y1="4" x2="12" y2="4" stroke="#9c27b0" stroke-width="1.5" opacity="0.74"/>
    <line x1="4" y1="4" x2="4" y2="12" stroke="#9c27b0" stroke-width="1.5" opacity="0.74"/>
    <line x1="76" y1="4" x2="68" y2="4" stroke="#9c27b0" stroke-width="1.5" opacity="0.74"/>
    <line x1="76" y1="4" x2="76" y2="12" stroke="#9c27b0" stroke-width="1.5" opacity="0.74"/>
    <line x1="4" y1="76" x2="12" y2="76" stroke="#9c27b0" stroke-width="1.5" opacity="0.74"/>
    <line x1="4" y1="76" x2="4" y2="68" stroke="#9c27b0" stroke-width="1.5" opacity="0.74"/>
    <line x1="76" y1="76" x2="68" y2="76" stroke="#9c27b0" stroke-width="1.5" opacity="0.74"/>
    <line x1="76" y1="76" x2="76" y2="68" stroke="#9c27b0" stroke-width="1.5" opacity="0.74"/>
  
  
    <path d="M35 20 L35 34 L24 52 Q22 58 26 60 L54 60 Q58 58 56 52 L45 34 L45 20Z" fill="#9c27b0" opacity="0.35" stroke="#9c27b0" stroke-width="1.5"/>
    <path d="M35 20 L45 20" stroke="#9c27b0" stroke-width="2" opacity="0.7"/>
    <path d="M26 50 L54 50" stroke="#9c27b0" stroke-width="1" opacity="0.4"/>
    <circle cx="35" cy="52" r="2" fill="#ce93d8" opacity="0.8"/>
    <circle cx="44" cy="56" r="1.5" fill="#ce93d8" opacity="0.7"/>
    <circle cx="38" cy="57" r="1.2" fill="#ce93d8" opacity="0.6"/>
  
  <circle cx="28" cy="71" r="1.6" fill="#9c27b0" opacity="0.5"/><circle cx="36" cy="71" r="1.6" fill="#9c27b0" opacity="0.5"/><circle cx="44" cy="71" r="1.6" fill="#9c27b0" opacity="0.5"/><circle cx="52" cy="71" r="2.2" fill="#ce93d8" opacity="1"/>
</svg>