<svg xmlns="http://www.w3.org/2000/svg" viewBox="0 0 80 80" width="80" height="80">
  <defs>
    <radialGradient id="bgqnt2" cx="50%" cy="45%" r="60%">
      <stop offset="0%" stop-color="#9c27b0" stop-opacity="0.12"/>
      <stop offset="100%" stop-color="#1a0d22" stop-opacity="1"/>
    </radialGradient>
    <radialGradient id="glowqnt2" cx="50%" cy="45%" r="40%">
      <stop offset="0%" stop-color="#ce93d8" stop-opacity="0.1"/>
      <stop offset="100%" stop-color="#ce93d8" stop-opacity="0"/>
    </radialGradient>
    <filter id="blurqnt2">
      <feGaussianBlur stdDeviation="2.5"/>
    </filter>
  </defs>
  <rect width="80" height="80" rx="6" fill="url(#bgqnt2)"/>
  <rect width="80" height="80" rx="6" fill="url(#glowqnt2)"/>
  <rect width="80" height="80" rx="6" fill="none" stroke="#9c27b0" stroke-width="0.8" opacity="0.33"/>
  
    <line x1="4" y1="4" x2="12" y2="4" stroke="#9c27b0" stroke-width="1.5" opacity="0.66"/>
    <line x1="4" y1="4" x2="4" y2="12" stroke="#9c27b0" stroke-width="1.5" opacity="0.66"/>
    <line x1="76" y1="4" x2="68" y2="4" stroke="#9c27b0" stroke-width="1.5" opacity="0.66"/>
    <line x1="76" y1="4" x2="76" y2="12" stroke="#9c27b0" stroke-width="1.5" opacity="0.66"/>
    <line x1="4" y1="76" x2="12" y2="76" stroke="#9c27b0" stroke-width="1.5" opacity="0.66"/>
    <line x1="4" y1="76" x2="4" y2="68" stroke="#9c27b0" stroke-width="1.5" opacity="0.66"/>
    <line x1="76" y1="76" x2="68" y2="76" stroke="#9c27b0" stroke-width="1.5" opacity="0.66"/>
    <line x1="76" y1="76" x2="76" y2="68" stroke="#9c27b0" stroke-width="1.5" opacity="0.66"/>
  
  
    <rect x="26" y="26" width="28" height="28" rx="5" fill="#9c27b0" opacity="0.35" stroke="#9c27b0" stroke-width="1.5"/>
    <circle cx="34" cy="34" r="2.5" fill="#ce93d8" opacity="0.9"/>
    <circle cx="46" cy="34" r="2.5" fill="#ce93d8" opacity="0.9"/>
    <circle cx="34" cy="46" r="2.5" fill="#ce93d8" opacity="0.9"/>
    <circle cx="46" cy="46" r="2.5" fill="#ce93d8" opacity="0.9"/>
    <circle cx="40" cy="40" r="2.5" fill="#ce93d8" opacity="0.9"/>
  
  <circle cx="32" cy="71" r="1.6" fill="#9c27b0" opacity="0.5"/><circle cx="40" cy="71" r="1.6" fill="#9c27b0" opacity="0.5"/><circle cx="48" cy="71" r="2.2" fill="#ce93d8" opacity="1"/>
</svg>