<svg xmlns="http://www.w3.org/2000/svg" viewBox="0 0 80 80" width="80" height="80">
  <defs>
    <radialGradient id="bgqnt4" cx="50%" cy="45%" r="60%">
      <stop offset="0%" stop-color="#9c27b0" stop-opacity="0.12"/>
      <stop offset="100%" stop-color="#1a0d22" stop-opacity="1"/>
    </radialGradient>
    <radialGradient id="glowqnt4" cx="50%" cy="45%" r="40%">
      <stop offset="0%" stop-color="#ce93d8" stop-opacity="0.14"/>
      <stop offset="100%" stop-color="#ce93d8" stop-opacity="0"/>
    </radialGradient>
    <filter id="blurqnt4">
      <feGaussianBlur stdDeviation="2.5"/>
    </filter>
  </defs>
  <rect width="80" height="80" rx="6" fill="url(#bgqnt4)"/>
  <rect width="80" height="80" rx="6" fill="url(#glowqnt4)"/>
  <rect width="80" height="80" rx="6" fill="none" stroke="#9c27b0" stroke-width="0.8" opacity="0.41000000000000003"/>
  
    <line x1="4" y1="4" x2="12" y2="4" stroke="#9c27b0" stroke-width="1.5" opacity="0.8200000000000001"/>
    <line x1="4" y1="4" x2="4" y2="12" stroke="#9c27b0" stroke-width="1.5" opacity="0.8200000000000001"/>
    <line x1="76" y1="4" x2="68" y2="4" stroke="#9c27b0" stroke-width="1.5" opacity="0.8200000000000001"/>
    <line x1="76" y1="4" x2="76" y2="12" stroke="#9c27b0" stroke-width="1.5" opacity="0.8200000000000001"/>
    <line x1="4" y1="76" x2="12" y2="76" stroke="#9c27b0" stroke-width="1.5" opacity="0.8200000000000001"/>
    <line x1="4" y1="76" x2="4" y2="68" stroke="#9c27b0" stroke-width="1.5" opacity="0.8200000000000001"/>
    <line x1="76" y1="76" x2="68" y2="76" stroke="#9c27b0" stroke-width="1.5" opacity="0.8200000000000001"/>
    <line x1="76" y1="76" x2="76" y2="68" stroke="#9c27b0" stroke-width="1.5" opacity="0.8200000000000001"/>
  
  
    <circle cx="40" cy="38" r="14" fill="none" stroke="#9c27b0" stroke-width="1.5" opacity="0.4" stroke-dasharray="8 4"/>
    <circle cx="40" cy="38" r="9" fill="none" stroke="#9c27b0" stroke-width="1.5" opacity="0.5" stroke-dasharray="6 3"/>
    <circle cx="40" cy="38" r="5" fill="none" stroke="#ce93d8" stroke-width="1.5" opacity="0.7" stroke-dasharray="4 2"/>
    <circle cx="40" cy="38" r="2" fill="#ce93d8" opacity="0.95"/>
    <path d="M40 24 Q54 32 52 46 Q46 56 32 52 Q22 44 26 30 Q32 20 46 22" fill="none" stroke="#9c27b0" stroke-width="1.5" opacity="0.5"/>
  
  <circle cx="24" cy="71" r="1.6" fill="#9c27b0" opacity="0.5"/><circle cx="32" cy="71" r="1.6" fill="#9c27b0" opacity="0.5"/><circle cx="40" cy="71" r="1.6" fill="#9c27b0" opacity="0.5"/><circle cx="48" cy="71" r="1.6" fill="#9c27b0" opacity="0.5"/><circle cx="56" cy="71" r="2.2" fill="#ce93d8" opacity="1"/>
</svg>