<svg xmlns="http://www.w3.org/2000/svg" viewBox="0 0 80 80" width="80" height="80">
  <defs>
    <radialGradient id="bgqnt5" cx="50%" cy="45%" r="60%">
      <stop offset="0%" stop-color="#9c27b0" stop-opacity="0.12"/>
      <stop offset="100%" stop-color="#1a0d22" stop-opacity="1"/>
    </radialGradient>
    <radialGradient id="glowqnt5" cx="50%" cy="45%" r="40%">
      <stop offset="0%" stop-color="#ce93d8" stop-opacity="0.16"/>
      <stop offset="100%" stop-color="#ce93d8" stop-opacity="0"/>
    </radialGradient>
    <filter id="blurqnt5">
      <feGaussianBlur stdDeviation="2.5"/>
    </filter>
  </defs>
  <rect width="80" height="80" rx="6" fill="url(#bgqnt5)"/>
  <rect width="80" height="80" rx="6" fill="url(#glowqnt5)"/>
  <rect width="80" height="80" rx="6" fill="none" stroke="#9c27b0" stroke-width="0.8" opacity="0.45"/>
  
    <line x1="4" y1="4" x2="12" y2="4" stroke="#9c27b0" stroke-width="1.5" opacity="0.9"/>
    <line x1="4" y1="4" x2="4" y2="12" stroke="#9c27b0" stroke-width="1.5" opacity="0.9"/>
    <line x1="76" y1="4" x2="68" y2="4" stroke="#9c27b0" stroke-width="1.5" opacity="0.9"/>
    <line x1="76" y1="4" x2="76" y2="12" stroke="#9c27b0" stroke-width="1.5" opacity="0.9"/>
    <line x1="4" y1="76" x2="12" y2="76" stroke="#9c27b0" stroke-width="1.5" opacity="0.9"/>
    <line x1="4" y1="76" x2="4" y2="68" stroke="#9c27b0" stroke-width="1.5" opacity="0.9"/>
    <line x1="76" y1="76" x2="68" y2="76" stroke="#9c27b0" stroke-width="1.5" opacity="0.9"/>
    <line x1="76" y1="76" x2="76" y2="68" stroke="#9c27b0" stroke-width="1.5" opacity="0.9"/>
  
  
    <line x1="40" y1="22" x2="40" y2="54" stroke="#9c27b0" stroke-width="1" opacity="0.5"/>
    <line x1="22" y1="38" x2="58" y2="38" stroke="#9c27b0" stroke-width="1" opacity="0.5"/>
    <line x1="26" y1="24" x2="54" y2="52" stroke="#9c27b0" stroke-width="1" opacity="0.4"/>
    <line x1="54" y1="24" x2="26" y2="52" stroke="#9c27b0" stroke-width="1" opacity="0.4"/>
    <circle cx="40" cy="38" r="6" fill="none" stroke="#9c27b0" stroke-width="1.2" opacity="0.6"/>
    <circle cx="40" cy="38" r="12" fill="none" stroke="#9c27b0" stroke-width="1" opacity="0.4"/>
    <circle cx="40" cy="38" r="3" fill="#ce93d8" opacity="0.9"/>
  
  <circle cx="20" cy="71" r="1.6" fill="#9c27b0" opacity="0.5"/><circle cx="28" cy="71" r="1.6" fill="#9c27b0" opacity="0.5"/><circle cx="36" cy="71" r="1.6" fill="#9c27b0" opacity="0.5"/><circle cx="44" cy="71" r="1.6" fill="#9c27b0" opacity="0.5"/><circle cx="52" cy="71" r="1.6" fill="#9c27b0" opacity="0.5"/><circle cx="60" cy="71" r="2.2" fill="#ce93d8" opacity="1"/>
</svg>