<svg xmlns="http://www.w3.org/2000/svg" viewBox="0 0 80 80" width="80" height="80">
  <defs>
    <radialGradient id="bgsyn6" cx="50%" cy="45%" r="60%">
      <stop offset="0%" stop-color="#2196f3" stop-opacity="0.12"/>
      <stop offset="100%" stop-color="#0d1a26" stop-opacity="1"/>
    </radialGradient>
    <radialGradient id="glowsyn6" cx="50%" cy="45%" r="40%">
      <stop offset="0%" stop-color="#64b5f6" stop-opacity="0.18"/>
      <stop offset="100%" stop-color="#64b5f6" stop-opacity="0"/>
    </radialGradient>
    <filter id="blursyn6">
      <feGaussianBlur stdDeviation="2.5"/>
    </filter>
  </defs>
  <rect width="80" height="80" rx="6" fill="url(#bgsyn6)"/>
  <rect width="80" height="80" rx="6" fill="url(#glowsyn6)"/>
  <rect width="80" height="80" rx="6" fill="none" stroke="#2196f3" stroke-width="0.8" opacity="0.49"/>
  
    <line x1="4" y1="4" x2="12" y2="4" stroke="#2196f3" stroke-width="1.5" opacity="0.98"/>
    <line x1="4" y1="4" x2="4" y2="12" stroke="#2196f3" stroke-width="1.5" opacity="0.98"/>
    <line x1="76" y1="4" x2="68" y2="4" stroke="#2196f3" stroke-width="1.5" opacity="0.98"/>
    <line x1="76" y1="4" x2="76" y2="12" stroke="#2196f3" stroke-width="1.5" opacity="0.98"/>
    <line x1="4" y1="76" x2="12" y2="76" stroke="#2196f3" stroke-width="1.5" opacity="0.98"/>
    <line x1="4" y1="76" x2="4" y2="68" stroke="#2196f3" stroke-width="1.5" opacity="0.98"/>
    <line x1="76" y1="76" x2="68" y2="76" stroke="#2196f3" stroke-width="1.5" opacity="0.98"/>
    <line x1="76" y1="76" x2="76" y2="68" stroke="#2196f3" stroke-width="1.5" opacity="0.98"/>
  
  
    <polygon points="40,18 50,32 46,52 34,52 30,32" fill="#2196f3" opacity="0.35" stroke="#2196f3" stroke-width="1.5"/>
    <polygon points="40,22 48,34 44,50 36,50 32,34" fill="#64b5f6" opacity="0.12"/>
    <line x1="40" y1="22" x2="36" y2="50" stroke="#64b5f6" stroke-width="1" opacity="0.4"/>
    <line x1="40" y1="22" x2="44" y2="50" stroke="#64b5f6" stroke-width="1" opacity="0.4"/>
    <line x1="32" y1="34" x2="48" y2="34" stroke="#64b5f6" stroke-width="1" opacity="0.4"/>
    <circle cx="40" cy="30" r="3" fill="#64b5f6" opacity="0.9"/>
  
  <circle cx="16" cy="71" r="1.6" fill="#2196f3" opacity="0.5"/><circle cx="24" cy="71" r="1.6" fill="#2196f3" opacity="0.5"/><circle cx="32" cy="71" r="1.6" fill="#2196f3" opacity="0.5"/><circle cx="40" cy="71" r="1.6" fill="#2196f3" opacity="0.5"/><circle cx="48" cy="71" r="1.6" fill="#2196f3" opacity="0.5"/><circle cx="56" cy="71" r="1.6" fill="#2196f3" opacity="0.5"/><circle cx="64" cy="71" r="2.2" fill="#64b5f6" opacity="1"/>
</svg>