<svg xmlns="http://www.w3.org/2000/svg" viewBox="0 0 80 80" width="80" height="80">
  <defs>
    <radialGradient id="bgsyn3" cx="50%" cy="45%" r="60%">
      <stop offset="0%" stop-color="#2196f3" stop-opacity="0.12"/>
      <stop offset="100%" stop-color="#0d1a26" stop-opacity="1"/>
    </radialGradient>
    <radialGradient id="glowsyn3" cx="50%" cy="45%" r="40%">
      <stop offset="0%" stop-color="#64b5f6" stop-opacity="0.12"/>
      <stop offset="100%" stop-color="#64b5f6" stop-opacity="0"/>
    </radialGradient>
    <filter id="blursyn3">
      <feGaussianBlur stdDeviation="2.5"/>
    </filter>
  </defs>
  <rect width="80" height="80" rx="6" fill="url(#bgsyn3)"/>
  <rect width="80" height="80" rx="6" fill="url(#glowsyn3)"/>
  <rect width="80" height="80" rx="6" fill="none" stroke="#2196f3" stroke-width="0.8" opacity="0.37"/>
  
    <line x1="4" y1="4" x2="12" y2="4" stroke="#2196f3" stroke-width="1.5" opacity="0.74"/>
    <line x1="4" y1="4" x2="4" y2="12" stroke="#2196f3" stroke-width="1.5" opacity="0.74"/>
    <line x1="76" y1="4" x2="68" y2="4" stroke="#2196f3" stroke-width="1.5" opacity="0.74"/>
    <line x1="76" y1="4" x2="76" y2="12" stroke="#2196f3" stroke-width="1.5" opacity="0.74"/>
    <line x1="4" y1="76" x2="12" y2="76" stroke="#2196f3" stroke-width="1.5" opacity="0.74"/>
    <line x1="4" y1="76" x2="4" y2="68" stroke="#2196f3" stroke-width="1.5" opacity="0.74"/>
    <line x1="76" y1="76" x2="68" y2="76" stroke="#2196f3" stroke-width="1.5" opacity="0.74"/>
    <line x1="76" y1="76" x2="76" y2="68" stroke="#2196f3" stroke-width="1.5" opacity="0.74"/>
  
  
    <circle cx="40" cy="38" r="5" fill="#2196f3" opacity="0.6"/>
    <circle cx="28" cy="30" r="3.5" fill="#2196f3" opacity="0.7"/>
    <circle cx="52" cy="30" r="3.5" fill="#2196f3" opacity="0.7"/>
    <circle cx="28" cy="46" r="3.5" fill="#2196f3" opacity="0.65"/>
    <circle cx="52" cy="46" r="3.5" fill="#2196f3" opacity="0.65"/>
    <circle cx="40" cy="24" r="3" fill="#64b5f6" opacity="0.8"/>
    <circle cx="40" cy="52" r="3" fill="#64b5f6" opacity="0.8"/>
    <line x1="34" y1="36" x2="31" y2="32" stroke="#2196f3" stroke-width="1" opacity="0.4"/>
    <line x1="46" y1="36" x2="49" y2="32" stroke="#2196f3" stroke-width="1" opacity="0.4"/>
    <line x1="34" y1="40" x2="31" y2="44" stroke="#2196f3" stroke-width="1" opacity="0.4"/>
    <line x1="46" y1="40" x2="49" y2="44" stroke="#2196f3" stroke-width="1" opacity="0.4"/>
  
  <circle cx="28" cy="71" r="1.6" fill="#2196f3" opacity="0.5"/><circle cx="36" cy="71" r="1.6" fill="#2196f3" opacity="0.5"/><circle cx="44" cy="71" r="1.6" fill="#2196f3" opacity="0.5"/><circle cx="52" cy="71" r="2.2" fill="#64b5f6" opacity="1"/>
</svg>